<svg width="30" height="24" viewBox="0 0 30 24" fill="none" xmlns="http://www.w3.org/2000/svg">
<path fill-rule="evenodd" clip-rule="evenodd" d="M24.8045 0.130728C24.6201 0.236482 21.5479 3.25395 17.9774 6.83594L11.4856 13.3489L8.4243 10.2936C6.74061 8.61336 5.18682 7.18441 4.97145 7.11846C4.08587 6.84724 3.56363 7.14865 1.75642 8.97364L0 10.7473V11.5866V12.4259L5.27849 17.7401C10.8781 23.3775 11.0512 23.5125 12.1178 23.0679C12.3732 22.9614 16.5012 18.9296 21.291 14.1086L30 5.34273V4.50091V3.65926L28.2272 1.87509C26.6856 0.323515 26.3687 0.0809707 25.797 0.0145157C25.4355 -0.0274826 24.9888 0.0248043 24.8045 0.130728Z" fill="white"/>
</svg>
