<svg width="16" height="14" viewBox="0 0 16 14" fill="none" xmlns="http://www.w3.org/2000/svg">
<path d="M6.26663 8.66667H1.99996C1.64634 8.66667 1.3072 8.52619 1.05715 8.27614C0.807103 8.02609 0.666627 7.68696 0.666627 7.33333V5.93067C0.666447 5.75643 0.700421 5.58384 0.766627 5.42267L2.83063 0.413333C2.88081 0.291169 2.96616 0.186663 3.07583 0.113075C3.1855 0.0394861 3.31455 0.000130314 3.44663 0H14.6666C14.8434 0 15.013 0.0702379 15.138 0.195262C15.2631 0.320286 15.3333 0.489856 15.3333 0.666667V7.33333C15.3333 7.51014 15.2631 7.67971 15.138 7.80474C15.013 7.92976 14.8434 8 14.6666 8H12.3453C12.2386 7.99997 12.1334 8.02557 12.0386 8.07464C11.9438 8.12372 11.8622 8.19483 11.8006 8.282L8.16529 13.4327C8.11934 13.4978 8.05157 13.5443 7.97427 13.5637C7.89697 13.5832 7.81526 13.5743 7.74396 13.5387L6.53463 12.9333C6.19429 12.7632 5.9224 12.4818 5.76414 12.1358C5.60587 11.7898 5.57076 11.4001 5.66463 11.0313L6.26663 8.66667ZM11.3333 6.94133V1.33333H3.89329L1.99996 5.93067V7.33333H6.26663C6.46969 7.33336 6.67007 7.37977 6.85247 7.46903C7.03487 7.55828 7.19448 7.68802 7.31911 7.84834C7.44374 8.00867 7.53011 8.19534 7.57162 8.39412C7.61313 8.5929 7.60868 8.79853 7.55863 8.99533L6.95663 11.3607C6.93779 11.4344 6.94478 11.5125 6.97643 11.5817C7.00809 11.651 7.06251 11.7073 7.13063 11.7413L7.57129 11.9613L10.7113 7.51333C10.878 7.27733 11.0913 7.084 11.3333 6.94133ZM12.6666 6.66667H14V1.33333H12.6666V6.66667Z" fill="white" fill-opacity="0.5"/>
</svg>
