<svg width="18" height="14" viewBox="0 0 18 14" fill="none" xmlns="http://www.w3.org/2000/svg">
<path fill-rule="evenodd" clip-rule="evenodd" d="M9.00002 1.54543C7.11299 1.54543 4.54275 1.7072 2.91058 1.82616C2.36854 1.86566 1.94874 2.29474 1.94874 2.81883V3.41105L8.48117 6.84223C8.80385 7.01171 9.1962 7.01171 9.51887 6.84222L16.0513 3.41105V2.81883C16.0513 2.29474 15.6315 1.86566 15.0895 1.82616C13.4573 1.7072 10.887 1.54543 9.00002 1.54543ZM16.0513 4.79767L10.1415 7.90181C9.43161 8.27468 8.56844 8.27468 7.85855 7.90181L1.94874 4.79767V11.1811C1.94874 11.7052 2.36854 12.1343 2.91058 12.1738C4.54275 12.2928 7.11299 12.4545 9.00002 12.4545C10.887 12.4545 13.4573 12.2928 15.0895 12.1738C15.6315 12.1343 16.0513 11.7052 16.0513 11.1811V4.79767ZM2.81205 0.617621C4.4452 0.498597 7.05892 0.333313 9.00002 0.333313C10.9411 0.333313 13.5548 0.498597 15.188 0.617621C16.4085 0.706571 17.3334 1.67155 17.3334 2.81883V11.1811C17.3334 12.3284 16.4085 13.2934 15.188 13.3823C13.5548 13.5014 10.9411 13.6666 9.00002 13.6666C7.05892 13.6666 4.4452 13.5014 2.81205 13.3823C1.59154 13.2934 0.666687 12.3284 0.666687 11.1811V2.81883C0.666687 1.67155 1.59154 0.706571 2.81205 0.617621Z" fill="white"/>
</svg>
