<svg width="64" height="64" viewBox="0 0 64 64" fill="none" xmlns="http://www.w3.org/2000/svg">
<path d="M27.4252 2.02122C29.88 -0.673131 34.12 -0.673131 36.5748 2.02122C38.2033 3.80858 40.7235 4.48387 43.0275 3.75021C46.5006 2.64424 50.1725 4.76424 50.9513 8.32502C51.4679 10.6871 53.3129 12.5321 55.675 13.0487C59.2358 13.8275 61.3558 17.4994 60.2498 20.9725C59.5161 23.2765 60.1914 25.7967 61.9788 27.4252C64.6731 29.88 64.6731 34.12 61.9788 36.5748C60.1914 38.2033 59.5161 40.7235 60.2498 43.0275C61.3558 46.5006 59.2358 50.1725 55.675 50.9513C53.3129 51.4679 51.4679 53.3129 50.9513 55.675C50.1725 59.2358 46.5006 61.3558 43.0275 60.2498C40.7235 59.5161 38.2033 60.1914 36.5748 61.9788C34.12 64.6731 29.88 64.6731 27.4252 61.9788C25.7967 60.1914 23.2765 59.5161 20.9725 60.2498C17.4994 61.3558 13.8275 59.2358 13.0487 55.675C12.5321 53.3129 10.6871 51.4679 8.32502 50.9513C4.76424 50.1725 2.64424 46.5006 3.75021 43.0275C4.48387 40.7235 3.80858 38.2033 2.02122 36.5748C-0.673131 34.12 -0.673131 29.88 2.02122 27.4252C3.80858 25.7967 4.48388 23.2765 3.75021 20.9725C2.64424 17.4994 4.76424 13.8275 8.32502 13.0487C10.6871 12.5321 12.5321 10.6871 13.0487 8.32502C13.8275 4.76424 17.4994 2.64424 20.9725 3.75021C23.2765 4.48388 25.7967 3.80858 27.4252 2.02122Z" fill="#5600E1"/>
</svg>
