<svg width="20" height="26" viewBox="0 0 20 26" fill="none" xmlns="http://www.w3.org/2000/svg">
<path fill-rule="evenodd" clip-rule="evenodd" d="M10 2.42308C7.68397 2.42308 5.80645 4.28856 5.80645 6.58974C5.80645 8.89093 7.68397 10.7564 10 10.7564C12.316 10.7564 14.1935 8.89093 14.1935 6.58974C14.1935 4.28856 12.316 2.42308 10 2.42308ZM3.87097 6.58974C3.87097 3.22647 6.61503 0.5 10 0.5C13.385 0.5 16.129 3.22647 16.129 6.58974C16.129 9.95302 13.385 12.6795 10 12.6795C6.61503 12.6795 3.87097 9.95302 3.87097 6.58974Z" fill="#111111"/>
<path fill-rule="evenodd" clip-rule="evenodd" d="M6.83272 17.1667C4.12805 17.1667 1.93548 19.3452 1.93548 22.0325C1.93548 22.1736 1.96144 22.2732 1.98865 22.3312C2.01162 22.3802 2.03132 22.3941 2.04776 22.403C2.79984 22.8096 4.90852 23.5769 10 23.5769C15.0915 23.5769 17.2002 22.8096 17.9522 22.403C17.9687 22.3941 17.9884 22.3802 18.0114 22.3312C18.0386 22.2732 18.0645 22.1736 18.0645 22.0325C18.0645 19.3452 15.8719 17.1667 13.1673 17.1667H6.83272ZM0 22.0325C0 18.2831 3.05911 15.2436 6.83272 15.2436H13.1673C16.9409 15.2436 20 18.2831 20 22.0325C20 22.7208 19.7492 23.6208 18.8774 24.0922C17.7224 24.7166 15.2448 25.5 10 25.5C4.75518 25.5 2.27757 24.7166 1.12265 24.0922C0.250793 23.6208 0 22.7208 0 22.0325Z" fill="#111111"/>
</svg>
